<?xml version="1.0" encoding="utf-8"?>
<!-- Generator: Adobe Illustrator 24.1.3, SVG Export Plug-In . SVG Version: 6.00 Build 0)  -->
<svg version="1.1" id="Layer_1" xmlns="http://www.w3.org/2000/svg" xmlns:xlink="http://www.w3.org/1999/xlink" x="0px" y="0px"
	 viewBox="0 0 283.46 283.46" style="enable-background:new 0 0 283.46 283.46;" xml:space="preserve">
<style type="text/css">
	.st0{fill:#FCB919;}
</style>
<g>
	<path class="st0" d="M0,248.03c0,19.49,15.94,35.43,35.44,35.43h212.6c19.49,0,35.43-15.95,35.43-35.43V35.43
		C283.47,15.94,267.52,0,248.04,0H35.43C15.94,0,0,15.94,0,35.43V248.03z"/>
	<g>
		<path d="M197.54,95.81c-0.74-8.1-4.48-15.59-10.52-21.1c-6.04-5.5-13.82-8.53-21.92-8.53c-1,0-2.02,0.05-3.02,0.14
			c-1.79,0.16-3.57,0.47-5.28,0.92l3.25,6.75c0.89-0.18,1.79-0.31,2.69-0.39c0.57-0.06,1.15-0.09,1.73-0.11
			c0.21,0,0.41-0.01,0.62-0.01c6.29,0,12.33,2.35,17.01,6.62c4.69,4.28,7.59,10.09,8.17,16.38c0.62,6.72-1.42,13.29-5.75,18.5
			c-5.3,6.37-13.35,9.13-19.52,9.13c-7.22,0-13.19-3.15-16.99-6.62c-4.68-4.28-7.58-10.09-8.16-16.38c-0.55-5.92,1-11.82,4.36-16.68
			l-3.7-7.12c-0.18,0.21-0.36,0.41-0.54,0.63c-5.57,6.7-8.2,15.17-7.4,23.85c0.74,8.1,4.48,15.59,10.52,21.1
			c6.03,5.5,13.82,8.53,21.92,8.53c0.26,0,0.53,0,0.79-0.01c0.72-0.02,1.47-0.06,2.22-0.13c8.67-0.79,16.52-4.92,22.1-11.62
			C195.71,112.96,198.34,104.49,197.54,95.81"/>
		<path d="M149.52,82.52c3.66,7.88,9.11,14.77,12.66,18.27c1.35,1.38,2.65,1.67,3.51,1.67c1.49,0,2.83-0.88,3.43-2.24
			c0.65-1.48,0.28-3.19-0.98-4.57c-4.08-4.35-8.67-9.7-11.83-16.32l-9.22-18.05c-0.3-0.76-0.42-1.56-0.38-2.36
			c0.06-0.97,0.37-1.91,0.91-2.73l0.68-0.96c0.22-0.3,0.57-0.73,0.9-1.14c0.3-0.37,0.7-0.88,0.89-1.14c3.75-5.08,4.4-6.94,4.98-9.19
			c0.88-3.33,0.35-6.53-1.48-9.01c-2.09-2.83-5.24-4.46-8.85-4.58c-0.13,0-0.26-0.01-0.39-0.01c-5.01,0-8.98,3.58-9.73,4.29
			c-1.43,1.39-1.47,3.69-0.08,5.12c0.68,0.7,1.59,1.08,2.55,1.08c0.92,0,1.84-0.35,2.58-0.99c0.69-0.59,2.77-2.38,4.68-2.38
			c1.85,0,3.2,1.55,3.01,1.32c0.66,0.77,1.09,2.28,0.65,3.69c-0.33,1.05-0.65,2.03-3.74,6.35c-0.63,0.82-2.54,3.2-3.03,3.88
			c-0.37,0.51-1,1.37-1.83,2.5l-0.3,0.41H94.26l-6.74-13.76c1.89-0.52,4.1-1.19,7.21-1.37l2.1-0.14c2.41-0.17,4.03-1.61,4.03-3.48
			c0-1.98-1.8-3.3-4.38-3.3h-9.36c-4.67,0-7.12-0.04-9.27-0.07c-1.63-0.03-3.04-0.05-5.08-0.05c-3.16,0-4.9,1.16-4.9,3.28
			c0,4.46,5.79,6.8,11.52,6.8c0.25,0,0.5-0.01,0.75-0.02l7.59,15.4l-28.8,37.69c-1.22,1.6-0.92,3.9,0.68,5.12
			c0.67,0.51,1.56,0.75,2.4,0.75h48.57c0.22,0,0.46-0.02,0.7-0.07c1.85-0.27,3.5-1.31,4.54-2.85c0.38-0.51,1.95-2.65,4.22-5.72
			c5.35-7.25,14.54-19.71,20.83-28.27L149.52,82.52z M69.22,94.97l22.12-28.94l14.24,28.94H69.22z M119.65,81.81
			c-2.87,3.88-5.5,7.43-7.42,10.04l-14.38-29.1h35.88C129.68,68.26,124.36,75.46,119.65,81.81"/>
		<path d="M83.09,85.7c0.76,1.26,1.41,2.57,1.94,3.9l7.69-0.08c-1.05-3.52-2.69-6.84-4.88-9.86L83.09,85.7z"/>
		<path d="M79.49,116.55c-4.74,4.82-11.08,7.5-17.84,7.56c-14.18,0-25.41-11.55-25.53-25.1c-0.06-6.76,2.52-13.14,7.26-17.96
			c4.74-4.82,11.07-7.5,17.84-7.57c2.42,0,4.87,0.28,7.49,1.07l4.56-6.15c-3.77-1.48-7.75-2.23-11.83-2.23
			c-10.12,0.08-17.95,4.34-23.26,9.75c-6.11,6.21-9.44,14.43-9.36,23.14c0.15,17.83,14.77,32.34,32.61,32.34
			c9.07-0.07,17.2-3.57,23.27-9.74c3.85-3.91,6.65-8.73,8.13-13.94l-7.67-0.03C83.92,111.01,82.02,113.98,79.49,116.55"/>
		<polygon points="248.03,248.03 248.03,150.59 241.29,150.59 222.78,248.03 		"/>
		<polygon points="63.1,248.03 197.99,150.59 187.69,150.59 32.88,248.03 		"/>
		<polygon points="213.97,164.45 223.57,150.59 216.83,150.59 204.47,164.45 		"/>
		<polygon points="191.2,197.31 206.35,175.45 194.66,175.45 175.18,197.31 		"/>
		<polygon points="160.45,213.83 129.96,248.03 156.06,248.03 179.75,213.83 		"/>
	</g>
</g>
</svg>
