<?xml version="1.0" encoding="utf-8"?>
<!-- Generator: Adobe Illustrator 24.1.3, SVG Export Plug-In . SVG Version: 6.00 Build 0)  -->
<svg version="1.1" id="Layer_1" xmlns="http://www.w3.org/2000/svg" xmlns:xlink="http://www.w3.org/1999/xlink" x="0px" y="0px"
	 viewBox="0 0 283.46 283.46" style="enable-background:new 0 0 283.46 283.46;" xml:space="preserve">
<style type="text/css">
	.st0{fill:#007AC9;}
	.st1{fill:#FFFFFF;}
</style>
<g>
	<g>
		<path class="st0" d="M0,248.03c0,19.49,15.94,35.44,35.43,35.44h212.6c19.49,0,35.43-15.95,35.43-35.44V35.43
			C283.46,15.94,267.52,0,248.03,0H35.43C15.94,0,0,15.94,0,35.43V248.03z"/>
	</g>
	<path class="st1" d="M188.56,90.33h-38.79c-4.2,0-7.86-3.67-7.86-7.86c0-3.67,3.66-7.86,7.86-7.86h38.79V35.81
		c0-4.72,4.72-8.38,8.91-8.38c4.2,0,8.92,3.66,8.92,8.38V74.6h38.79c4.72,0,7.87,4.19,7.87,7.86c0,4.2-3.15,7.86-7.87,7.86h-38.79
		v38.79c0,5.23-4.72,8.38-8.92,8.38c-4.19,0-8.91-3.15-8.91-8.38V90.33z"/>
	<g>
		<g>
			<path class="st1" d="M121.08,204.55l11.29-1.22c3.21-0.31,5.95,1.98,5.95,5.19c0,2.75-1.98,5.03-4.73,5.34l-11.14,1.37
				c-3.35,0.46-6.26-2.13-6.26-5.49C116.2,207.14,118.33,204.85,121.08,204.55z M67.98,204.55c2.74,0.3,4.88,2.59,4.88,5.19
				c0,3.36-2.9,5.95-6.25,5.49l-11.14-1.37c-2.75-0.31-4.73-2.59-4.73-5.34c0-3.2,2.75-5.49,5.95-5.19L67.98,204.55z M53.64,143.97
				h81.94c1.53,10.38,2.74,23.19,2.74,41.66H50.74C50.74,167.01,51.96,154.19,53.64,143.97z M94.53,120.47
				c-15.87,0-22.73,0.92-37.38,3.05c-4.88,0.61-7.17,3.2-8.24,7.48c-1.52,6.1-3.35,15.87-5.03,35.86c-4.58-1.07-6.26-1.37-7.78-1.37
				c-3.51,0-6.26,2.59-6.26,6.25c0,3.2,2.29,5.95,5.64,6.71l7.32,1.53c-0.15,4.58-0.31,9.31-0.31,14.19
				c0,14.65,1.07,28.99,1.68,32.19c0.46,2.75,2.44,5.19,4.88,5.65l3.66,0.61v12.96c0,1.38,1.38,2.45,2.9,2.45h11.29
				c1.22,0,2.75-1.07,2.75-2.45v-11.13c7.48,0.76,14.64,1.22,24.87,1.22c10.22,0,17.4-0.46,24.87-1.22v11.13
				c0,1.38,1.53,2.45,2.75,2.45h11.29c1.53,0,2.9-1.07,2.9-2.45v-12.96l3.66-0.61c2.44-0.46,4.42-2.9,4.88-5.65
				c0.61-3.2,1.68-17.54,1.68-32.19c0-4.88-0.15-9.61-0.3-14.19l7.33-1.53c3.36-0.76,5.64-3.51,5.64-6.71
				c0-3.66-2.75-6.25-6.26-6.25c-1.52,0-3.2,0.3-7.78,1.37c-1.68-19.99-3.51-29.75-4.88-35.86c-0.91-4.27-3.51-6.87-8.39-7.48
				C117.27,121.39,110.4,120.47,94.53,120.47z"/>
		</g>
	</g>
</g>
</svg>
