<?xml version="1.0" encoding="utf-8"?>
<!-- Generator: Adobe Illustrator 24.1.3, SVG Export Plug-In . SVG Version: 6.00 Build 0)  -->
<svg version="1.1" id="Layer_1" xmlns="http://www.w3.org/2000/svg" xmlns:xlink="http://www.w3.org/1999/xlink" x="0px" y="0px"
	 viewBox="0 0 283.46 283.46" style="enable-background:new 0 0 283.46 283.46;" xml:space="preserve">
<style type="text/css">
	.st0{fill:#007AC9;}
	.st1{fill:#FFFFFF;}
</style>
<g>
	<g>
		<path class="st0" d="M0,248.03c0,19.49,15.94,35.43,35.43,35.43h212.6c19.49,0,35.43-15.95,35.43-35.43V35.43
			C283.46,15.94,267.52,0,248.03,0H35.43C15.94,0,0,15.94,0,35.43V248.03z"/>
	</g>
	<g>
		<path class="st1" d="M185.54,175.55l18.81-2.04c5.34-0.51,9.92,3.31,9.92,8.65c0,4.57-3.31,8.39-7.88,8.9l-18.57,2.29
			c-5.59,0.76-10.42-3.56-10.42-9.15C177.4,179.88,180.96,176.06,185.54,175.55z M97.04,175.55c4.57,0.51,8.13,4.32,8.13,8.65
			c0,5.59-4.83,9.92-10.43,9.15l-18.56-2.29c-4.58-0.51-7.89-4.32-7.89-8.9c0-5.34,4.58-9.16,9.92-8.65L97.04,175.55z M73.14,74.59
			H209.7c2.54,17.29,4.57,38.65,4.57,69.42H68.31C68.31,113,70.34,91.63,73.14,74.59z M141.29,35.43c-26.45,0-37.89,1.53-62.3,5.09
			c-8.14,1.02-11.96,5.34-13.74,12.46c-2.54,10.17-5.59,26.45-8.39,59.76c-7.63-1.78-10.43-2.29-12.97-2.29
			c-5.85,0-10.43,4.32-10.43,10.43c0,5.34,3.81,9.92,9.41,11.19l12.2,2.54c-0.25,7.63-0.51,15.51-0.51,23.65
			c0,24.41,1.78,48.32,2.8,53.66c0.76,4.58,4.07,8.65,8.13,9.41l6.1,1.02v21.61c0,2.29,2.29,4.07,4.84,4.07h18.81
			c2.04,0,4.58-1.78,4.58-4.07V225.4c12.46,1.27,24.41,2.03,41.45,2.03s28.99-0.76,41.45-2.03v18.56c0,2.29,2.54,4.07,4.58,4.07
			h18.82c2.54,0,4.83-1.78,4.83-4.07v-21.61l6.1-1.02c4.07-0.76,7.37-4.83,8.14-9.41c1.02-5.34,2.79-29.24,2.79-53.66
			c0-8.14-0.25-16.02-0.51-23.65l12.21-2.54c5.6-1.27,9.41-5.85,9.41-11.19c0-6.1-4.58-10.43-10.43-10.43
			c-2.54,0-5.34,0.51-12.96,2.29c-2.8-33.31-5.85-49.59-8.14-59.76c-1.52-7.12-5.85-11.44-13.99-12.46
			C179.18,36.96,167.74,35.43,141.29,35.43z"/>
	</g>
</g>
</svg>
