<?xml version="1.0" encoding="utf-8"?>
<!-- Generator: Adobe Illustrator 24.1.3, SVG Export Plug-In . SVG Version: 6.00 Build 0)  -->
<svg version="1.1" id="Layer_1" xmlns="http://www.w3.org/2000/svg" xmlns:xlink="http://www.w3.org/1999/xlink" x="0px" y="0px"
	 viewBox="0 0 283.46 283.46" style="enable-background:new 0 0 283.46 283.46;" xml:space="preserve">
<style type="text/css">
	.st0{fill:#007AC9;}
	.st1{fill:#FFFFFF;}
</style>
<g>
	<path class="st0" d="M0,247.94c0,19.65,15.87,35.53,35.53,35.53h212.79c19.28,0,35.15-15.87,35.15-35.53V35.15
		C283.46,15.87,267.59,0,248.31,0H35.52C15.87,0,0,15.87,0,35.15V247.94z"/>
	<path class="st1" d="M257.92,112.3c-1.51-9.24-6.19-15.96-16.07-18.33c-6.96-1.68-11.83-2.87-14.1-3.43
		c-5.38-11.66-13.58-19.51-26.09-22.02c-28.39-5.7-166.24-33.07-166.24-33.07v22.09l34.08,11.07c1.78,0.58,2.83,2.53,2.33,4.33
		c0,0-2.75,9.98-3.08,22.4c-0.37,13.58,0.67,21.19,0.67,21.19c0.25,1.85-0.88,2.62-2.5,1.7l-31.49-17.81v61.23
		c0,0,11.03,10.06,24.39,22.23c-0.29,2.79-0.64,6.66-0.64,9.09c0,16.79,4.36,30.68,14.73,34.57c0.93,0.35,3.72,0.46,5.85,0.46
		c2.17,0,4.69-0.06,5.75-0.49c4.71-1.88,7.56-6.13,9.25-11.76c5.84,5.33,10.04,9.17,11.15,10.19c4.9,4.53,11.91,7.71,20.95,9.03
		c13.78,1.38,31.01,2.07,48.96,2.07c17.42,0,34.51-0.86,51.21-2.26c5.41-0.46,10.43-4.22,10.53-10.14
		c0.23-13.64,0.28-32.17,0.28-50.79c0-28.64-0.78-54.8-6.59-73.99c2.61,0.7,6.68,1.87,8.4,2.4c3.39,1.03,5.19,4.31,5.61,6.69
		c1.86,10.68,2.66,22.62,3,34.49c0,3.43,2.79,6.23,6.22,6.23c3.43,0,6.21-2.8,6.21-6.23C260.34,132.79,259.52,122.1,257.92,112.3z
		 M72.62,211.01c-2.54,0.09-4.81-5.77-5.07-13.09c-0.25-7.31,1.61-13.32,4.16-13.4c2.54-0.09,4.81,5.78,5.07,13.09
		C77.02,204.93,75.16,210.93,72.62,211.01z M112.6,173.61c-0.95,0-1.88-0.61-3.36-2c-18.91-17.79-31.12-43.32-31.12-71.14
		c0-8.39,1.07-16.54,3.09-24.3c0.31-1.08,1.05-2.03,1.67-2.35c0.58-0.29,1.46-0.38,2.1-0.18c0.64,0.21,7.37,2.4,7.37,2.4
		c8.47,2.75,16.26,9.9,17.96,24.12c2.58,21.62,4.35,48.48,4.35,71.42C114.68,172.84,113.55,173.61,112.6,173.61z M144.24,216.38
		c-7.93,0-17.98-8.95-17.98-14.26c0-1.75,1.38-2.76,3.28-2.76c1.19,0,2.31,0.2,3.53,0.6c1.21,0.4,12.93,4.38,14.42,4.89
		c1.6,0.55,2.98,2.47,2.98,4.33C150.47,212.49,147.93,216.38,144.24,216.38z M131.47,186.96c-3.16-1.55-5.46-4-5.48-6.65
		c-0.41-30.85-2.21-61.05-5.26-90.45c-0.19-1.81,0.77-3,1.27-3.47c0.5-0.47,1.7-1.39,3.53-1.13c13.59,1.88,29.07,2.95,45.49,2.95
		c13.12,0,24.29-0.36,35.36-1.78c3.75-0.48,7.34,1.23,9.42,4.77c7.2,12.21,10.91,35.49,11.02,80.57c0.06,2.85,0.1,5.7,0.14,8.56
		c0,2.44-1.43,4.71-5.44,6.65c-13.64,6.6-28.8,10.81-45.03,10.81S145.08,193.62,131.47,186.96z M209.72,215.96
		c-3.6,0-6.08-3.79-6.08-7.03c0-1.82,1.35-3.69,2.91-4.22c1.45-0.5,12.88-4.38,14.06-4.77c1.18-0.39,2.28-0.59,3.44-0.59
		c1.86,0,3.2,0.99,3.2,2.7C227.25,207.23,217.46,215.96,209.72,215.96z"/>
</g>
</svg>
