<?xml version="1.0" encoding="utf-8"?>
<!-- Generator: Adobe Illustrator 24.1.3, SVG Export Plug-In . SVG Version: 6.00 Build 0)  -->
<svg version="1.1" id="Layer_1" xmlns="http://www.w3.org/2000/svg" xmlns:xlink="http://www.w3.org/1999/xlink" x="0px" y="0px"
	 viewBox="0 0 283.46 283.46" style="enable-background:new 0 0 283.46 283.46;" xml:space="preserve">
<style type="text/css">
	.st0{fill:#8C4799;}
	.st1{fill:#FFFFFF;}
</style>
<g>
	<path class="st0" d="M0,248.03c0,19.49,15.94,35.43,35.43,35.43h212.6c19.49,0,35.43-15.95,35.43-35.43V35.43
		C283.46,15.94,267.52,0,248.03,0H35.43C15.94,0,0,15.94,0,35.43V248.03z"/>
</g>
<g>
	<path class="st1" d="M224.69,251.72c3.78,0,6.8,3.02,6.8,6.8c0,3.78-3.03,6.8-6.8,6.8H59.15c-3.78,0-6.8-3.03-6.8-6.8
		c0-3.78,3.02-6.8,6.8-6.8h16.63V236.6H89v15.12h105.83V236.6h13.22v15.12H224.69z M234.14,64.63
		c-6.42-13.61-11.34-24.19-16.63-28.72c-7.94-7.18-41.58-15.12-75.97-15.12c-33.26,0-67.66,7.94-75.22,15.12
		c-5.29,4.54-10.58,15.12-17.01,28.72c-5.29,11.71-9.45,22.68-9.45,29.1v102.42c0,8.31,2.64,11.71,13.61,20.41
		c8.31,6.43,11.71,9.07,24.19,9.07h23.44v15.5h82.01v-15.5h23.06c12.47,0,15.87-2.64,23.81-9.07c10.96-9.07,13.61-12.1,13.61-20.41
		V93.73C243.59,87.31,239.06,76.34,234.14,64.63 M87.87,48.38h107.72v6.04c0,4.54-3.78,8.31-8.31,8.31H96.56
		c-4.54,0-8.7-3.78-8.7-8.31V48.38z M96.56,206.74c-4.91,0-8.7-3.78-8.7-8.69c0-4.92,3.78-8.7,8.7-8.7c4.91,0,9.07,3.78,9.07,8.7
		C105.63,202.96,101.48,206.74,96.56,206.74 M187.27,205.6c-4.91,0-8.7-3.78-8.7-8.69c0-4.92,3.78-8.7,8.7-8.7
		c4.91,0,9.07,3.78,9.07,8.7C196.34,201.83,192.18,205.6,187.27,205.6 M216.75,90.71l-16.25,70.3c-1.13,6.05-7.19,10.96-13.23,10.96
		H96.56c-6.04,0-12.1-4.92-13.23-10.96l-16.63-70.3c-1.13-6.04,3.02-10.96,9.07-10.96h132.28
		C214.11,79.74,218.26,84.66,216.75,90.71"/>
</g>
</svg>
