<?xml version="1.0" encoding="utf-8"?>
<!-- Generator: Adobe Illustrator 24.1.3, SVG Export Plug-In . SVG Version: 6.00 Build 0)  -->
<svg version="1.1" id="Layer_1" xmlns="http://www.w3.org/2000/svg" xmlns:xlink="http://www.w3.org/1999/xlink" x="0px" y="0px"
	 viewBox="0 0 283.46 283.46" style="enable-background:new 0 0 283.46 283.46;" xml:space="preserve">
<style type="text/css">
	.st0{fill:#00B9E4;}
	.st1{fill:#FFFFFF;}
</style>
<g>
	<path class="st0" d="M0,248.03c0,19.49,15.94,35.43,35.43,35.43h212.6c19.49,0,35.43-15.95,35.43-35.43V35.43
		C283.46,15.94,267.52,0,248.03,0H35.43C15.94,0,0,15.94,0,35.43V248.03z"/>
</g>
<g>
	<path class="st1" d="M72.11,143.17c9.76-2.54,17.2-4.44,30.23-7.23c16.93-3.63,37.6-6.09,38.6-6.21c1,0.12,21.67,2.59,38.6,6.21
		c13.03,2.79,20.47,4.69,30.24,7.23v-49.4c0-6.45,1.8-14.84-14.99-14.84h-30.82v-46.6c-0.18-2.5-2.11-4.52-4.57-4.83h-36.92
		c-2.46,0.31-4.39,2.33-4.57,4.83v46.6H87.1c-16.79,0-14.99,8.4-14.99,14.84V143.17z M176.07,91.5c7.31,0,13.23,5.92,13.23,13.22
		c0,7.3-5.93,13.22-13.23,13.22c-7.29,0-13.22-5.92-13.22-13.22C162.85,97.42,168.79,91.5,176.07,91.5 M140.94,91.5
		c7.29,0,13.22,5.92,13.22,13.22c0,7.3-5.92,13.22-13.22,13.22c-7.3,0-13.23-5.92-13.23-13.22C127.71,97.42,133.64,91.5,140.94,91.5
		 M105.79,91.5c7.29,0,13.22,5.92,13.22,13.22c0,7.3-5.93,13.22-13.22,13.22c-7.3,0-13.21-5.92-13.21-13.22
		C92.57,97.42,98.48,91.5,105.79,91.5 M140.94,228.4c38.29,0.01,76.46,0.01,78.6,0.02l7.65-67.09c0,0-28.31-7.6-47.63-11.74
		c-16.76-3.59-37.19-6.04-38.58-6.2v-0.01c0,0-0.01,0-0.04,0c-0.02,0-0.04,0-0.04,0v0.01c-1.39,0.16-21.82,2.62-38.57,6.2
		c-19.32,4.15-47.63,11.74-47.63,11.74l7.65,67.09C64.48,228.41,102.64,228.4,140.94,228.4 M240.7,239.46H42.76
		c-3.77,0-6.83,3.06-6.83,6.83c0,3.77,3.07,6.83,6.83,6.83H240.7c3.77,0,6.83-3.06,6.83-6.83
		C247.53,242.51,244.47,239.46,240.7,239.46"/>
</g>
</svg>
