<?xml version="1.0" encoding="utf-8"?>
<!-- Generator: Adobe Illustrator 24.1.3, SVG Export Plug-In . SVG Version: 6.00 Build 0)  -->
<svg version="1.1" id="Layer_1" xmlns="http://www.w3.org/2000/svg" xmlns:xlink="http://www.w3.org/1999/xlink" x="0px" y="0px"
	 viewBox="0 0 283.46 283.46" style="enable-background:new 0 0 283.46 283.46;" xml:space="preserve">
<style type="text/css">
	.st0{fill:#007AC9;}
	.st1{fill:#FFFFFF;}
</style>
<g>
	<path class="st0" d="M0,247.94c0,19.65,15.87,35.53,35.53,35.53h212.79c19.28,0,35.15-15.88,35.15-35.53V35.15
		C283.46,15.87,267.59,0,248.31,0H35.52C15.87,0,0,15.87,0,35.15V247.94z"/>
	<path class="st1" d="M244.34,168.66c1.7,5.95-4.54,10.21-9.35,10.21h-7.65c-2.55,0-4.25-1.42-5.1-3.4l-2.55-5.95
		c-1.13-3.12,0-4.82,3.4-4.82h15.88C241.51,164.69,243.21,165.54,244.34,168.66 M159.87,169.51c-0.57-3.12,0-4.82,3.4-4.82h15.31
		c2.84,0,4.25,1.42,5.1,3.69l2.27,5.38c1.13,3.12,0,5.1-2.55,5.1h-6.24C167.24,178.87,161.29,174.33,159.87,169.51 M154.2,150.23
		l-9.36-39.4c-1.13-4.82,0.28-7.09,5.38-7.09l70.02,0.28c3.97,0,6.52,1.7,7.65,4.82l11.06,41.39c1.13,3.12-1.42,4.82-4.54,4.82
		h-74.84C156.19,155.05,155.34,153.35,154.2,150.23 M106.3,112.82v34.58c0,3.12-2.83,4.82-5.67,3.12l-12.19-7.37
		c-2.55-1.7-3.4-3.4-3.4-5.95l-0.28-32.03c0-3.68,2.27-5.67,5.1-4.54l11.91,5.1C104.31,106.86,106.3,109.13,106.3,112.82
		 M71.43,132.66l-9.64-5.95c-2.27-1.42-3.12-3.4-3.12-6.52V91.84c0-2.84,1.7-3.97,4.25-2.84l8.79,3.69
		c3.69,1.42,4.82,3.69,4.82,7.94l0.28,28.63C76.82,132.66,74.55,134.64,71.43,132.66 M172.91,81.35h12.19c2.27,0,3.97,0.85,5.1,3.4
		l1.7,4.82c1.13,3.68,0,4.82-2.84,4.82h-12.76c-1.98,0-3.97-1.13-4.54-3.12l-1.98-5.95C168.66,82.77,169.79,81.35,172.91,81.35
		 M252.92,248.03l-47.01-29.48h24.54c26.08,0,33.16-18.42,27.21-40.54l-18.42-69.73c-7.08-26.08-16.16-35.15-67.75-45.64
		L35.43,35.43v41.95l12.47,5.1c1.98,0.85,2.83,2.27,2.83,5.39v26.65c0,3.12-1.98,3.97-4.54,2.55l-10.77-6.8v27.97l86.94,67.83
		c15.59,12.19,26.73,12.48,42.04,12.48h19.98l14.68,9.92h-68.6l-95.05-79.65v13.32l94.68,85.89h23.57l-12.08-10.21h71.55
		l15.11,10.21H252.92z"/>
</g>
</svg>
