<?xml version="1.0" encoding="utf-8"?>
<!-- Generator: Adobe Illustrator 24.1.3, SVG Export Plug-In . SVG Version: 6.00 Build 0)  -->
<svg version="1.1" id="Layer_1" xmlns="http://www.w3.org/2000/svg" xmlns:xlink="http://www.w3.org/1999/xlink" x="0px" y="0px"
	 viewBox="0 0 283.46 283.46" style="enable-background:new 0 0 283.46 283.46;" xml:space="preserve">
<style type="text/css">
	.st0{fill:#8C479A;}
	.st1{fill:#FFFFFF;}
</style>
<path class="st0" d="M0,248.03c0,19.49,15.94,35.44,35.43,35.44h212.6c19.49,0,35.44-15.95,35.44-35.44V35.43
	C283.46,15.94,267.52,0,248.03,0H35.43C15.94,0,0,15.94,0,35.43V248.03z"/>
<path class="st1" d="M212.98,95.31l-2.07,29.07l11.91,8.91v7.75l-17.25-5.36l-17.24,5.36v-7.75l11.79-8.9l-2.07-29.08l-43.01,16.83
	V99.33L197.3,68.7V33.54c0-4.54,3.68-8.21,8.21-8.21s8.21,3.68,8.21,8.21v35.71l42.26,30.08v12.82L212.98,95.31z"/>
<path class="st1" d="M135.36,240.67c2.04,0,3.68,1.64,3.68,3.68c0,2.04-1.64,3.68-3.68,3.68H45.85c-2.04,0-3.68-1.64-3.68-3.68
	c0-2.04,1.64-3.68,3.68-3.68h8.99v-8.17H62v8.17h57.22v-8.17h7.15v8.17H135.36z M140.47,139.51c-3.47-7.36-6.13-13.08-8.99-15.53
	c-4.29-3.88-22.48-8.18-41.08-8.18c-17.99,0-36.58,4.29-40.67,8.18c-2.86,2.45-5.72,8.17-9.2,15.53
	c-2.86,6.33-5.11,12.26-5.11,15.74v55.38c0,4.49,1.43,6.33,7.36,11.03c4.49,3.48,6.33,4.91,13.08,4.91h12.67v8.38h44.34v-8.38h12.47
	c6.75,0,8.58-1.43,12.87-4.91c5.92-4.9,7.36-6.54,7.36-11.03v-55.38C145.58,151.77,143.13,145.85,140.47,139.51 M61.38,130.73h58.24
	v3.27c0,2.45-2.04,4.49-4.49,4.49H66.09c-2.45,0-4.7-2.04-4.7-4.49V130.73z M66.09,216.35c-2.66,0-4.7-2.04-4.7-4.7
	c0-2.66,2.05-4.7,4.7-4.7c2.66,0,4.9,2.04,4.9,4.7C70.99,214.31,68.74,216.35,66.09,216.35 M115.13,215.74c-2.66,0-4.7-2.04-4.7-4.7
	c0-2.66,2.05-4.7,4.7-4.7c2.65,0,4.9,2.04,4.9,4.7C120.04,213.69,117.79,215.74,115.13,215.74 M131.07,153.61l-8.79,38.01
	c-0.61,3.27-3.88,5.93-7.15,5.93H66.09c-3.27,0-6.54-2.66-7.15-5.93l-8.99-38.01c-0.61-3.27,1.63-5.93,4.9-5.93h71.52
	C129.64,147.69,131.89,150.34,131.07,153.61"/>
</svg>
