<?xml version="1.0" encoding="utf-8"?>
<!-- Generator: Adobe Illustrator 24.1.3, SVG Export Plug-In . SVG Version: 6.00 Build 0)  -->
<svg version="1.1" id="Layer_1" xmlns="http://www.w3.org/2000/svg" xmlns:xlink="http://www.w3.org/1999/xlink" x="0px" y="0px"
	 viewBox="0 0 283.46 283.46" style="enable-background:new 0 0 283.46 283.46;" xml:space="preserve">
<style type="text/css">
	.st0{fill:#007AC9;}
	.st1{fill:#FFFFFF;}
</style>
<g>
	<path class="st0" d="M0,248.03c0,19.49,15.94,35.44,35.43,35.44h212.6c19.49,0,35.44-15.95,35.44-35.44V35.43
		C283.46,15.94,267.52,0,248.03,0H35.43C15.94,0,0,15.94,0,35.43V248.03z"/>
</g>
<path class="st1" d="M137.82,123.59c-16.2-1.94-30.89-3.02-47.1-3.02c-16.85,0-31.53,0.86-47.52,3.02
	c-4.97,0.65-7.78,3.46-7.78,7.78v94.84c0,3.02,2.38,5.18,4.32,5.61l6.05,1.08v12.75c0,1.51,1.3,2.37,2.81,2.37h9.72
	c1.3,0,2.59-0.86,2.59-2.37v-11.24c7.78,0.87,18.58,1.3,29.39,1.3c10.8,0,22.03-0.43,29.81-1.3v11.24c0,1.51,1.3,2.37,2.59,2.37
	h9.72c1.51,0,2.81-0.86,2.81-2.37V232.9l6.05-1.08c2.38-0.43,4.32-2.38,4.32-5.61v-94.84C145.61,127.05,142.8,124.24,137.82,123.59
	 M53.15,223.18c-3.02-0.22-5.4-2.59-5.4-5.4c0.21-2.81,2.59-5.18,5.4-5.18c2.81,0,5.18,2.37,5.18,5.18
	C58.33,220.81,55.96,223.18,53.15,223.18 M127.24,223.18c-3.03-0.22-5.4-2.59-5.4-5.4c0.22-2.81,2.59-5.18,5.4-5.18
	c2.81,0,5.19,2.37,5.19,5.18C132.43,220.81,130.05,223.18,127.24,223.18 M136.96,196.61v0.43c0,2.6-1.08,4.11-4.32,4.54
	c-11.66,1.94-26.78,3.89-41.69,3.89c-15.55,0-30.24-1.73-42.12-4.32c-3.24-0.65-4.32-1.95-4.32-4.54v-59.19
	c0-2.59,1.08-4.53,4.32-4.53l83.81,0.43c3.24,0,4.32,1.95,4.32,4.54V196.61z M212.98,95.31l-2.07,29.07l11.91,8.91v7.75l-17.25-5.36
	l-17.24,5.36v-7.75l11.79-8.9l-2.07-29.08l-43.01,16.83V99.33L197.3,68.7V33.54c0-4.54,3.68-8.21,8.21-8.21s8.21,3.68,8.21,8.21
	v35.71l42.26,30.08v12.82L212.98,95.31z"/>
</svg>
