<?xml version="1.0" encoding="UTF-8"?><svg id="Layer_3" xmlns="http://www.w3.org/2000/svg" viewBox="0 0 200 200"><defs><style>.cls-1{fill:#007e79;stroke-width:0px;}</style></defs><path class="cls-1" d="m149.04,124.54l-10.39-72.56c-.69-5.15-3.81-9.63-8.3-11.75-9.55-4.52-19.41-6.21-25.13-6.91v-8.8h18.38c2.72,0,4.93-2.21,4.93-4.93s-2.21-4.93-4.93-4.93h-46.93c-2.72,0-4.93,2.21-4.93,4.93s2.21,4.93,4.93,4.93h18.41v8.8c-5.75.69-15.61,2.39-25.16,6.91-4.49,2.12-7.58,6.6-8.28,11.75l-10.39,72.56c-.78,5.45-.25,11.03,1.49,16.23,1.03,3.09,2.96,9.31,4.13,12.34,1.65,4.29,5.39,7.31,9.64,8.41,7.73,2.01,19.26,3.74,33.63,3.74s25.9-1.73,33.63-3.74c4.25-1.1,7.99-4.12,9.64-8.41,1.17-3.04,3.09-9.26,4.13-12.34,1.74-5.2,2.29-10.77,1.51-16.23Zm-9.34,10.17l-2.62,8.07c-.67,2.04-1.74,2.55-3.34,3.04-3.65,1.1-19.07,3.72-33.59,3.83-14.52-.11-29.92-2.73-33.56-3.83-1.6-.49-2.67-1-3.34-3.04l-2.62-8.07c-.6-1.82.91-3.11,2.95-2.56,6.29,1.7,13.29,3.13,19.1,4.27,1.76.34,3.4,1.44,4.17,3.01.91,1.85,2.71,3.12,4.64,3.24,2.65.17,5.73.27,8.66.27s6.01-.1,8.66-.27c1.93-.12,3.74-1.39,4.64-3.24.77-1.58,2.41-2.67,4.17-3.01,5.82-1.14,12.84-2.57,19.13-4.27,2.04-.55,3.55.74,2.95,2.56Zm-4.01-14.1c-8.37,2.68-21.69,5.59-35.55,5.59s-27.16-2.91-35.53-5.59c-1.86-.6-3.01-2.44-2.73-4.37l7.35-51.31c.24-1.67,1.49-3,3.14-3.35,7.22-1.5,17.06-2.88,27.77-2.88s20.57,1.39,27.79,2.88c1.65.34,2.9,1.68,3.14,3.35l7.35,51.31c.28,1.93-.88,3.78-2.73,4.37Zm-7.14,49.52c-3.48.71-7.39,1.28-11.38,1.71,0,0,7.56,9,9.55,11.37,2.56,3.06,4.65,4.03,7.58,4.03,3.33,0,6.28-2.45,2.78-6.82-1.72-2.14-8.53-10.29-8.53-10.29Zm-56.8,0c3.48.71,7.39,1.28,11.38,1.71,0,0-7.56,9-9.55,11.37-2.56,3.06-4.65,4.03-7.58,4.03-3.33,0-6.28-2.45-2.78-6.82,1.72-2.14,8.53-10.29,8.53-10.29Z"/></svg>