<?xml version="1.0" encoding="utf-8"?>
<!-- Generator: Adobe Illustrator 24.1.3, SVG Export Plug-In . SVG Version: 6.00 Build 0)  -->
<svg version="1.1" id="Layer_1" xmlns="http://www.w3.org/2000/svg" xmlns:xlink="http://www.w3.org/1999/xlink" x="0px" y="0px"
	 viewBox="0 0 283.46 283.46" style="enable-background:new 0 0 283.46 283.46;" xml:space="preserve">
<style type="text/css">
	.st0{clip-path:url(#SVGID_2_);fill:#00985F;}
	.st1{clip-path:url(#SVGID_4_);fill:#FFFFFF;}
</style>
<g>
	<defs>
		<rect id="SVGID_1_" width="283.46" height="283.46"/>
	</defs>
	<clipPath id="SVGID_2_">
		<use xlink:href="#SVGID_1_"  style="overflow:visible;"/>
	</clipPath>
	<path class="st0" d="M0,248.03c0,19.49,15.94,35.43,35.43,35.43h212.6c19.49,0,35.43-15.95,35.43-35.43V35.43
		C283.46,15.94,267.52,0,248.03,0H35.43C15.94,0,0,15.94,0,35.43V248.03z"/>
</g>
<g>
	<defs>
		<rect id="SVGID_3_" width="283.46" height="283.46"/>
	</defs>
	<clipPath id="SVGID_4_">
		<use xlink:href="#SVGID_3_"  style="overflow:visible;"/>
	</clipPath>
	<path class="st1" d="M190.87,251.71c3.4,0,6.8,3.03,6.8,6.43c0,4.53-3.4,7.18-6.8,7.18H92.59c-3.78,0-6.42-2.64-6.42-7.18
		c0-3.4,2.64-6.43,6.42-6.43h10.59v-10.58l13.22,1.51v9.07h50.65v-9.07l13.23-1.51v10.58H190.87z M204.1,74.83l-6.05-14.36
		c-1.89-4.16-4.15-6.43-8.69-7.56c-15.12-3.78-26.08-5.29-40.44-5.67V34.76h26.46c3.4,0,6.43-3.03,6.43-6.8
		c0-4.16-3.03-7.18-6.43-7.18h-66.9c-4.15,0-7.18,3.02-7.18,7.18c0,3.78,3.03,6.8,7.18,6.8h26.08v12.47
		c-14.74,0.38-26.45,1.89-40.43,5.67c-4.92,1.51-7.56,3.4-9.45,7.56l-6.05,14.36c-1.89,4.53-1.89,10.59-1.89,15.12V217.6
		c0,6.42,4.16,10.21,10.59,11.34c19.28,3.78,35.9,5.29,54.43,5.29c17.76,0,34.77-1.51,54.42-5.29c6.04-1.13,10.58-4.92,10.58-11.34
		V89.95C206.74,85.41,205.98,79.36,204.1,74.83 M97.51,204.85c-4.54,0-7.94-3.4-7.94-7.94c0-4.92,3.4-8.7,7.94-8.7
		c4.91,0,8.69,3.78,8.69,8.7C106.2,201.45,102.42,204.85,97.51,204.85 M89.95,173.1V86.92h103.18v86.18
		c-13.61,4.15-32.88,6.42-51.4,6.42C123.21,179.52,103.93,176.88,89.95,173.1 M186.71,204.85c-4.54,0-7.94-3.4-7.94-7.94
		c0-4.92,3.4-8.7,7.94-8.7c4.92,0,8.69,3.78,8.69,8.7C195.4,201.45,191.62,204.85,186.71,204.85"/>
</g>
</svg>
