<?xml version="1.0" encoding="utf-8"?>
<!-- Generator: Adobe Illustrator 24.1.3, SVG Export Plug-In . SVG Version: 6.00 Build 0)  -->
<svg version="1.1" id="Layer_1" xmlns="http://www.w3.org/2000/svg" xmlns:xlink="http://www.w3.org/1999/xlink" x="0px" y="0px"
	 viewBox="0 0 283.46 283.46" style="enable-background:new 0 0 283.46 283.46;" xml:space="preserve">
<style type="text/css">
	.st0{fill:#FF6319;}
	.st1{fill:#FFFFFF;}
</style>
<g>
	<path class="st0" d="M0,248.03c0,19.49,15.94,35.43,35.43,35.43h212.6c19.49,0,35.43-15.95,35.43-35.43V35.43
		C283.46,15.94,267.52,0,248.03,0H35.43C15.94,0,0,15.94,0,35.43V248.03z"/>
</g>
<g>
	<path class="st1" d="M165.43,248.03l40.19-137.96v-6.04c0-0.39,0.51-0.79,1.15-0.58l0,144.58h44.17V35.43h-64.97l-40.82,145.36
		l-0.78,9.75c-0.38,0.19-0.51,0.19-0.89,0l-1.16-9.75L101.49,35.43H36.26l0,212.6h44.56V103.45c0.51-0.21,1.15,0.18,1.15,0.58v6.04
		l39.93,137.96H165.43"/>
</g>
</svg>
